# xmcd
# 
# Track frame offsets:
#     150
#     64610
#     94889
#     121308
#     149684
# 
# Disc length: 2472
# 
# Revision: 6
# Processed by: cddbd v1.5.2PL0 Copyright (c) Steve Scherf et al.
# Submitted via: fre:ac v1.0.17
# 
DISCID=4609a605
DTITLE=Dire Straits - Love Over Gold
DYEAR=1982
DGENRE=Pop
TTITLE0=Telegraph Road
TTITLE1=Private Investigations
TTITLE2=Industrial Disease
TTITLE3=Love Over Gold
TTITLE4=It Never Rains
EXTD=YEAR: 1982 ID3G: 13
EXTT0=
EXTT1=
EXTT2=
EXTT3=
EXTT4=
PLAYORDER=
